<?xml version="1.0" encoding="UTF-8" standalone="no"?>
<svg
   height="16"
   viewBox="0 0 16 16"
   width="16"
   version="1.1"
   id="svg1"
   sodipodi:docname="AnimatedTextureRect.svg"
   inkscape:version="1.3.2 (091e20ef0f, 2023-11-25, custom)"
   xmlns:inkscape="http://www.inkscape.org/namespaces/inkscape"
   xmlns:sodipodi="http://sodipodi.sourceforge.net/DTD/sodipodi-0.dtd"
   xmlns="http://www.w3.org/2000/svg"
   xmlns:svg="http://www.w3.org/2000/svg">
  <defs
     id="defs1" />
  <sodipodi:namedview
     id="namedview1"
     pagecolor="#ffffff"
     bordercolor="#000000"
     borderopacity="0.25"
     inkscape:showpageshadow="2"
     inkscape:pageopacity="0.0"
     inkscape:pagecheckerboard="0"
     inkscape:deskcolor="#d1d1d1"
     showgrid="true"
     inkscape:zoom="9.3802134"
     inkscape:cx="6.556354"
     inkscape:cy="20.095492"
     inkscape:window-width="1920"
     inkscape:window-height="1053"
     inkscape:window-x="0"
     inkscape:window-y="0"
     inkscape:window-maximized="1"
     inkscape:current-layer="svg1">
    <inkscape:grid
       id="grid1"
       units="px"
       originx="0"
       originy="0"
       spacingx="1"
       spacingy="1"
       empcolor="#0099e5"
       empopacity="0.30196078"
       color="#0099e5"
       opacity="0.14901961"
       empspacing="5"
       dotted="false"
       gridanglex="30"
       gridanglez="30"
       visible="true" />
  </sodipodi:namedview>
  <path
     d="M 1,1 V 15 H 15 V 1 Z M 2,2 H 14 V 14 H 2 Z"
     fill="#a5efac"
     id="path1"
     sodipodi:nodetypes="cccccccccc" />
  <g
     id="g1"
     transform="translate(3,-16)">
    <path
       d="m 1.4613293,21 c -0.80498307,0 -1.45303802,0.64872 -1.45303802,1.454545 v 5.09091 C 0.00829128,28.351273 0.65633896,29 1.4613293,29 H 6.5469622 C 7.3519451,29 8,28.35128 8,27.545455 v -5.09091 C 8,21.648727 7.3519523,21 6.5469622,21 Z m -0.00543,3 C 2.0019597,23.984284 2,24.503533 2,25 2,25.402908 1.8540552,26 1.4515637,26 1.0490721,26 1,25.402908 1,25 1,24.519109 0.99630636,24.013227 1.4558978,24 Z m 5.0634101,0 C 7,24 6.9993697,24.483953 7,25 7.0004921,25.402908 6.9852519,26 6.5827603,26 6,26 6,25.402908 6,25 6,24.56316 6,24 6.5193079,24 Z M 2,27 H 6 C 6.0001132,27.51975 5.5620624,27.740125 5,28 4.4380356,28.25983 3.5619644,28.25983 3,28 2.4379376,27.740125 1.9998868,27.51975 2,27 Z"
       id="path3"
       style="fill:#a5efac;fill-opacity:1;stroke-width:0.726896"
       sodipodi:nodetypes="sssssssssssssssssssccssc" />
    <path
       id="path3-6"
       style="fill:#a5efac;fill-opacity:0.592157;stroke-width:0.715572"
       d="m 2.496094,20.022904 c -0.6624078,0 -1.2163235,0.445709 -1.3808596,1.054688 0.1248169,-0.03472 0.2562825,-0.05469 0.3925781,-0.05469 H 6.556641 C 7.355983,21.022904 8,21.661691 8,22.454545 v 5.007812 c 0,0.124212 -0.017162,0.24461 -0.046875,0.359375 0.571817,-0.187364 0.982422,-0.723326 0.982422,-1.359375 v -5.007812 c 0,-0.792854 -0.638781,-1.431641 -1.431641,-1.431641 z" />
    <path
       id="path3-6-3"
       style="fill:#a5efac;fill-opacity:0.392157;stroke-width:0.715572"
       d="m 3.431641,19.022904 c -0.662408,0 -1.216324,0.445709 -1.38086,1.054688 0.124817,-0.03472 0.256282,-0.05469 0.392578,-0.05469 h 5.048829 c 0.799342,2e-6 1.443359,0.638789 1.443359,1.431643 v 5.007812 c 0,0.124212 -0.01716,0.24461 -0.04687,0.359375 0.571817,-0.187364 0.982422,-0.723326 0.982422,-1.359375 v -5.007812 c -5e-6,-0.792854 -0.638786,-1.431641 -1.431646,-1.431641 z" />
  </g>
</svg>
