<?xml version="1.0" encoding="UTF-8" standalone="no"?>
<svg
   height="16"
   viewBox="0 0 16 16"
   width="16"
   version="1.1"
   id="svg2"
   sodipodi:docname="SlideoutContainer.svg"
   inkscape:version="1.3.2 (091e20ef0f, 2023-11-25, custom)"
   xmlns:inkscape="http://www.inkscape.org/namespaces/inkscape"
   xmlns:sodipodi="http://sodipodi.sourceforge.net/DTD/sodipodi-0.dtd"
   xmlns="http://www.w3.org/2000/svg"
   xmlns:svg="http://www.w3.org/2000/svg">
  <defs
     id="defs2" />
  <sodipodi:namedview
     id="namedview2"
     pagecolor="#ffffff"
     bordercolor="#000000"
     borderopacity="0.25"
     inkscape:showpageshadow="2"
     inkscape:pageopacity="0.0"
     inkscape:pagecheckerboard="0"
     inkscape:deskcolor="#d1d1d1"
     showgrid="true"
     inkscape:zoom="13.4375"
     inkscape:cx="15.144186"
     inkscape:cy="19.162791"
     inkscape:window-width="1920"
     inkscape:window-height="1053"
     inkscape:window-x="0"
     inkscape:window-y="0"
     inkscape:window-maximized="1"
     inkscape:current-layer="svg2">
    <inkscape:grid
       id="grid2"
       units="px"
       originx="0"
       originy="0"
       spacingx="1"
       spacingy="1"
       empcolor="#0099e5"
       empopacity="0.30196078"
       color="#0099e5"
       opacity="0.14901961"
       empspacing="5"
       dotted="false"
       gridanglex="30"
       gridanglez="30"
       visible="true" />
  </sodipodi:namedview>
  <path
     d="M 2,1 C 0.8954,1 1,0.89543 1,2 v 12 c 0,1.1046 -0.10457,1 1,1 h 12 c 1.1046,0 1,0.10457 1,-1 V 2 C 15,0.8954 15.10457,1 14,1 Z M 2,2 H 14 V 14 H 2 Z"
     id="path1"
     style="fill:#a5efac"
     sodipodi:nodetypes="sssssssssccccc" />
  <path
     id="rect2"
     style="fill:#a5efac;stroke-width:2"
     d="M 4 4 L 4 12 L 12 12 L 12 4 L 4 4 z M 5 5 L 11.035156 5 L 11.035156 11 L 5 11 L 5 5 z " />
  <path
     id="rect2-6"
     style="fill:#a5efac;fill-opacity:0.592157;stroke-width:0.353553"
     d="M 2,4 H 4 V 5 H 2 Z" />
  <path
     id="rect2-6-6"
     style="fill:#a5efac;fill-opacity:0.592157;stroke-width:0.353553"
     d="m 2,11 h 2 v 1 H 2 Z" />
  <path
     id="rect2-6-0"
     style="fill:#a5efac;fill-opacity:0.392157;stroke-width:0.25"
     d="M 0,4 H 1 V 5 H 0 Z" />
  <path
     id="rect2-6-0-2"
     style="fill:#a5efac;fill-opacity:0.392157;stroke-width:0.25"
     d="m 0,11 h 1 v 1 H 0 Z" />
</svg>
