<?xml version="1.0" encoding="UTF-8" standalone="no"?>
<svg
   height="16"
   viewBox="0 0 16 16"
   width="16"
   version="1.1"
   id="svg1"
   sodipodi:docname="AnimatedTextureButton.svg"
   inkscape:version="1.3.2 (091e20ef0f, 2023-11-25, custom)"
   xmlns:inkscape="http://www.inkscape.org/namespaces/inkscape"
   xmlns:sodipodi="http://sodipodi.sourceforge.net/DTD/sodipodi-0.dtd"
   xmlns="http://www.w3.org/2000/svg"
   xmlns:svg="http://www.w3.org/2000/svg">
  <defs
     id="defs1" />
  <sodipodi:namedview
     id="namedview1"
     pagecolor="#ffffff"
     bordercolor="#000000"
     borderopacity="0.25"
     inkscape:showpageshadow="2"
     inkscape:pageopacity="0.0"
     inkscape:pagecheckerboard="0"
     inkscape:deskcolor="#d1d1d1"
     showgrid="true"
     inkscape:zoom="18.760427"
     inkscape:cx="1.4125478"
     inkscape:cy="9.4081015"
     inkscape:window-width="1920"
     inkscape:window-height="1053"
     inkscape:window-x="0"
     inkscape:window-y="0"
     inkscape:window-maximized="1"
     inkscape:current-layer="svg1">
    <inkscape:grid
       id="grid1"
       units="px"
       originx="0"
       originy="0"
       spacingx="1"
       spacingy="1"
       empcolor="#0099e5"
       empopacity="0.30196078"
       color="#0099e5"
       opacity="0.14901961"
       empspacing="5"
       dotted="false"
       gridanglex="30"
       gridanglez="30"
       visible="true" />
  </sodipodi:namedview>
  <path
     id="path3-62"
     style="fill:#a5efac;fill-opacity:1;stroke-width:0.726896"
     d="m 7,4 1.554688,1.832031 -3,2 C 5.5321431,8 5.554688,7.832031 5,8 V 9 L 7.002,10.02734 7,10 l 3.480422,3e-6 c 1.13e-4,0.519748 -0.437939,0.740125 -1,1 -0.421997,0.195114 -1.021022,0.244405 -1.53125,0.146484 0.03189,0.122089 0.05078,0.248503 0.05078,0.38086 V 12 h 3.027344 c 0.804981,0 1.453125,-0.649255 1.453125,-1.455078 V 5.455078 C 12.480469,4.649262 11.832332,4 11.027344,4 Z m 4,3 c 0.48066,0 0.479839,0.483955 0.480469,1 4.92e-4,0.402908 -0.01548,1 -0.417969,1 -0.582759,0 -0.582031,-0.597092 -0.582031,-1 0,-0.43684 2.24e-4,-1 0.519531,-1 z"
     sodipodi:nodetypes="ccccccccscscsssccsssss" />
  <path
     d="m 8,1 v 1 h 7 v 12 h -5 v 1 h 6 V 1 Z M 3,2 v 3.1328 l -1.4453,-0.96484 -1.1094,1.6641 3,2 c 0.3359,0.2239 0.77347,0.2239 1.1094,0 l 3,-2 L 6.4453,4.16796 5,5.1328 V 2 Z M 2.5,10 C 1.669,10 1,10.669 1,11.5 V 12 13 H 0 v 2 H 8 V 13 H 7 V 12 11.5 C 7,10.669 6.331,10 5.5,10 Z"
     fill="#a5efac"
     id="path1"
     sodipodi:nodetypes="ccccccccccccccccccccssccccccccsss" />
  <path
     id="path3-6"
     style="fill:#a5efac;fill-opacity:0.592157;stroke-width:0.715572"
     d="M 6.966797,3.000002 C 6.304389,3.0000022 6.143053,3.391021 5.978516,4 c 0.124817,-0.03472 -0.136296,0 0,0 h 5.048828 c 0.799342,2e-6 1.443359,0.638789 1.443359,1.431643 v 5.007812 C 12.470703,10.563667 12.056588,10.746092 12,11 c 1,0 2.008351,-0.364006 2,-1 L 13.921216,4 C 13.910806,3.2072143 13.79286,2.9999997 13,3 Z"
     sodipodi:nodetypes="scscsscssss" />
</svg>
